{"title":"Maleficent 2014 DVDRip XviD - FeCkTaRdS","uid":10796342,"size":1321203634,"categoryP":"video","categoryS":"movies","magnet":"?xt=urn:btih:eda9174a2fb0e9d1b4c1e8fa3605ad1d71c31664&amp;dn=Maleficent+2014+DVDRip+XviD+-+FeCkTaRdS&amp;tr=udp%3A%2F%2Ftracker.openbittorrent.com%3A80&amp;tr=udp%3A%2F%2Fopen.demonii.com%3A1337&amp;tr=udp%3A%2F%2Ftracker.coppersurfer.tk%3A6969&amp;tr=udp%3A%2F%2Fexodus.desync.com%3A6969","seeders":3,"leechers":0,"uploader":"D3LBOY","files":1,"time":1408297620,"description":"[img]http://i.imgur.com/JA1cyiA.jpg[/img]\n\nMaleficent 2014 DVDRip XviD - FeCkTaRdS\n\nVideo\n\nID : 0\nFormat : MPEG-4 Visual\nFormat profile : Advanced Simple@L5\nFormat settings, BVOP : 2\nFormat settings, QPel : No\nFormat settings, GMC : No warppoints\nFormat settings, Matrix : Default (MPEG)\nCodec ID : XVID\nCodec ID/Hint : XviD\nDuration : 1h 37mn\nBit rate : 1 607 Kbps\nWidth : 720 pixels\nHeight : 304 pixels\nDisplay aspect ratio : 2.35:1\nFrame rate : 23.976 fps\nColor space : YUV\nChroma subsampling : 4:2:0\nBit depth : 8 bits\nScan type : Progressive\nCompression mode : Lossy\nBits/(Pixel*Frame) : 0.306\nStream size : 1.09 GiB (89%)\nWriting library : XviD 1.2.1 (UTC 2008-12-04)\n\n[color=blue]Audio[/color]\nID : 1\nFormat : MPEG Audio\nFormat version : Version 1\nFormat profile : Layer 3\nMode : Joint stereo\nMode extension : MS Stereo\nCodec ID : 55\nCodec ID/Hint : MP3\nDuration : 1h 37mn\nBit rate mode : Constant\nBit rate : 192 Kbps\nChannel(s) : 2 channels\nSampling rate : 48.0 KHz\nCompression mode : Lossy\nStream size : 134 MiB (11%)\nAlignment : Aligned on interleaves\nInterleave, duration : 24 ms (0.58 video frame)\nInterleave, preload duration : 192 msvideo frames)\nInterleave, preload duration : 192 ms\n\nScreens\n\n[img]http://i.imgbox.com/4RyurQNc.png[/img]\n\n[img]http://i.imgbox.com/OvSHs6ws.png[/img]\n\n[img]http://i.imgbox.com/vF1VWqOw.png[/img]\n\nGreets\n\nAS ALWAYS TO THE BEST - \n\nFooKaS ACAB DiNGiE MiLLENiUM takken2012 KingStoner Barton BDS HELLRAZOR bustheadz And all our friends at the coont club\n\nAS ALWAYS TO THE RETARDS -\n\nFook me the list is long :slap: Ranbailey and BK2beingME you pair are so far up Chaos ass all thats left is your toe nails !\n\nbig shout to Skullkruncha the grass is never greener you fooken toss pot\n\nTo CPG ! The only encoder on the net who can turn a Blueray in to a cam\n\nand last but not least a new entry to our greets the one and only marsby We are so sorry we are not at your level :no: but remember if you need a loan when your server bill is due ! you know where to come you Kangaroo shagging inbreed\n\nThE FeCkTaRdS Are back ! Do we give a fook ? no we dont ! No","torrent":{"xt":"urn:btih:eda9174a2fb0e9d1b4c1e8fa3605ad1d71c31664","amp;dn":"Maleficent+2014+DVDRip+XviD+-+FeCkTaRdS","amp;tr":["udp%3A%2F%2Ftracker.openbittorrent.com%3A80","udp%3A%2F%2Fopen.demonii.com%3A1337","udp%3A%2F%2Ftracker.coppersurfer.tk%3A6969","udp%3A%2F%2Fexodus.desync.com%3A6969"],"infoHash":"eda9174a2fb0e9d1b4c1e8fa3605ad1d71c31664","infoHashBuffer":{"type":"Buffer","data":[237,169,23,74,47,176,233,209,180,193,232,250,54,5,173,29,113,195,22,100]},"announce":[],"urlList":[]}}